<svg xmlns="http://www.w3.org/2000/svg" xmlns:xlink="http://www.w3.org/1999/xlink" width="500"
	zoomAndPan="magnify" viewBox="0 0 375 374.999991" height="500"
	preserveAspectRatio="xMidYMid meet" version="1.0">
	<defs>
		<clipPath id="7d6b97f877">
			<path d="M 90 6 L 368 6 L 368 284 L 90 284 Z M 90 6 " clip-rule="nonzero" />
		</clipPath>
		<clipPath id="60fc84943f">
			<path
				d="M -50.832031 150.519531 L 250.4375 -92.390625 L 493.351562 208.878906 L 192.082031 451.789062 Z M -50.832031 150.519531 "
				clip-rule="nonzero" />
		</clipPath>
		<clipPath id="33ea971048">
			<path
				d="M -50.832031 150.519531 L 250.4375 -92.390625 L 493.351562 208.878906 L 192.082031 451.789062 Z M -50.832031 150.519531 "
				clip-rule="nonzero" />
		</clipPath>
		<clipPath id="199b6d1354">
			<path d="M 219 135 L 239 135 L 239 155 L 219 155 Z M 219 135 " clip-rule="nonzero" />
		</clipPath>
		<clipPath id="3b9353be60">
			<path
				d="M -50.832031 150.519531 L 250.4375 -92.390625 L 493.351562 208.878906 L 192.082031 451.789062 Z M -50.832031 150.519531 "
				clip-rule="nonzero" />
		</clipPath>
		<clipPath id="3ebad532d3">
			<path
				d="M -50.832031 150.519531 L 250.4375 -92.390625 L 493.351562 208.878906 L 192.082031 451.789062 Z M -50.832031 150.519531 "
				clip-rule="nonzero" />
		</clipPath>
		<clipPath id="46374fa8a7">
			<path d="M 3 149 L 254 149 L 254 373 L 3 373 Z M 3 149 " clip-rule="nonzero" />
		</clipPath>
		<clipPath id="61f81cbf06">
			<path
				d="M -50.832031 150.519531 L 250.4375 -92.390625 L 493.351562 208.878906 L 192.082031 451.789062 Z M -50.832031 150.519531 "
				clip-rule="nonzero" />
		</clipPath>
		<clipPath id="2cbe7bef5c">
			<path
				d="M -50.832031 150.519531 L 250.4375 -92.390625 L 493.351562 208.878906 L 192.082031 451.789062 Z M -50.832031 150.519531 "
				clip-rule="nonzero" />
		</clipPath>
	</defs>
	<g clip-path="url(#7d6b97f877)">
		<g clip-path="url(#60fc84943f)">
			<g clip-path="url(#33ea971048)">
				<path fill="#ffffff"
					d="M 141.753906 37.339844 C 82.195312 85.359375 72.84375 172.570312 120.863281 232.125 C 168.886719 291.683594 256.097656 301.039062 315.652344 253.019531 C 375.210938 204.996094 384.5625 117.785156 336.539062 58.226562 C 288.519531 -1.335938 201.3125 -10.683594 141.753906 37.339844 Z M 259.210938 183.015625 C 238.320312 199.859375 207.714844 196.574219 190.867188 175.679688 C 174.019531 154.785156 177.304688 124.183594 198.195312 107.339844 C 219.09375 90.492188 249.6875 93.773438 266.539062 114.667969 C 283.386719 135.5625 280.109375 166.164062 259.210938 183.015625 Z M 259.210938 183.015625 "
					fill-opacity="1" fill-rule="nonzero" />
			</g>
		</g>
	</g>
	<g clip-path="url(#199b6d1354)">
		<g clip-path="url(#3b9353be60)">
			<g clip-path="url(#3ebad532d3)">
				<path fill="#ffffff"
					d="M 236.011719 139.285156 C 236.398438 139.761719 236.734375 140.277344 237.019531 140.820312 C 237.304688 141.367188 237.535156 141.9375 237.707031 142.527344 C 237.882812 143.117188 237.996094 143.722656 238.050781 144.335938 C 238.105469 144.949219 238.101562 145.5625 238.035156 146.175781 C 237.96875 146.789062 237.84375 147.386719 237.660156 147.976562 C 237.476562 148.5625 237.238281 149.128906 236.941406 149.667969 C 236.648438 150.210938 236.300781 150.71875 235.90625 151.191406 C 235.511719 151.664062 235.074219 152.09375 234.59375 152.480469 C 234.117188 152.867188 233.601562 153.203125 233.058594 153.488281 C 232.511719 153.773438 231.941406 154.003906 231.351562 154.175781 C 230.761719 154.351562 230.15625 154.464844 229.542969 154.519531 C 228.929688 154.574219 228.316406 154.570312 227.703125 154.503906 C 227.089844 154.4375 226.492188 154.3125 225.902344 154.128906 C 225.316406 153.945312 224.75 153.707031 224.210938 153.410156 C 223.667969 153.117188 223.164062 152.769531 222.6875 152.375 C 222.214844 151.980469 221.785156 151.542969 221.398438 151.0625 C 221.011719 150.585938 220.675781 150.070312 220.390625 149.527344 C 220.105469 148.980469 219.875 148.410156 219.703125 147.820312 C 219.527344 147.230469 219.414062 146.625 219.359375 146.011719 C 219.304688 145.398438 219.308594 144.785156 219.375 144.171875 C 219.441406 143.5625 219.566406 142.960938 219.75 142.371094 C 219.933594 141.785156 220.171875 141.21875 220.46875 140.679688 C 220.761719 140.136719 221.109375 139.632812 221.503906 139.160156 C 221.898438 138.683594 222.335938 138.253906 222.816406 137.867188 C 223.292969 137.480469 223.808594 137.144531 224.351562 136.859375 C 224.898438 136.574219 225.46875 136.34375 226.058594 136.171875 C 226.648438 135.996094 227.253906 135.882812 227.867188 135.828125 C 228.480469 135.773438 229.09375 135.777344 229.707031 135.84375 C 230.316406 135.910156 230.917969 136.035156 231.507812 136.21875 C 232.09375 136.402344 232.660156 136.640625 233.199219 136.9375 C 233.742188 137.230469 234.246094 137.578125 234.722656 137.972656 C 235.195312 138.367188 235.625 138.804688 236.011719 139.285156 Z M 236.011719 139.285156 "
					fill-opacity="1" fill-rule="nonzero" />
			</g>
		</g>
	</g>
	<g clip-path="url(#46374fa8a7)">
		<g clip-path="url(#61f81cbf06)">
			<g clip-path="url(#2cbe7bef5c)">
				<path fill="#ffffff"
					d="M 253.613281 344.246094 L 212.324219 321.710938 L 209.109375 327.613281 L 118.460938 278.152344 L 92.066406 245.414062 C 96.832031 239.089844 96.894531 230.121094 91.699219 223.679688 C 86.507812 217.242188 77.726562 215.398438 70.539062 218.714844 L 58.121094 203.316406 L 70.355469 193.453125 L 34.859375 149.425781 L 3.664062 174.582031 L 39.160156 218.605469 L 51.390625 208.742188 L 63.808594 224.140625 C 59.050781 230.460938 58.984375 239.4375 64.175781 245.875 C 69.367188 252.316406 78.152344 254.15625 85.335938 250.839844 L 112.832031 284.875 L 204.964844 335.203125 L 197.121094 349.5625 L 200.410156 351.355469 L 193.800781 363.476562 L 197.292969 365.382812 L 203.902344 353.261719 L 238.417969 372.097656 Z M 253.613281 344.246094 "
					fill-opacity="1" fill-rule="nonzero" />
			</g>
		</g>
	</g>
</svg>